<?xml version="1.0" encoding="UTF-8"?>
<svg width="199px" height="45px" viewBox="0 0 199 45" version="1.1" xmlns="http://www.w3.org/2000/svg" xmlns:xlink="http://www.w3.org/1999/xlink">
    <title>brand-logo@2x</title>
    <g id="Symbols" stroke="none" stroke-width="1" fill="none" fill-rule="evenodd">
        <g id="Inline-logo" transform="translate(-11.000000, -3.000000)" fill="#B29142" fill-rule="nonzero">
            <g id="brand-logo" transform="translate(11.000000, 3.000000)">
                <polygon id="path232" points="126.779449 38.0325815 123.934837 38.0325815 123.934837 39.7368421 126.441103 39.7368421 126.441103 40.2130326 123.934837 40.2130326 123.934837 41.9548872 126.817043 41.9548872 126.817043 42.4686717 123.370927 42.4686717 123.370927 37.4561404 126.741855 37.4561404"></polygon>
                <path d="M130.56391,39.7368421 C131.591479,39.9749373 132.080201,40.3884712 132.080201,41.1528822 C132.075366,41.5582542 131.900012,41.9428416 131.597143,42.2123233 C131.294274,42.4818049 130.891906,42.6112538 130.488722,42.5689223 C129.770413,42.5754785 129.081241,42.2853009 128.58396,41.7669173 L128.909774,41.3533835 C129.315302,41.8044049 129.894746,42.0599078 130.501253,42.0551378 C131.12782,42.0551378 131.541353,41.716792 131.541353,41.2030075 C131.541353,40.6892231 131.315789,40.4761905 130.288221,40.2631579 C129.260652,40.0501253 128.734336,39.6365915 128.734336,38.8220551 C128.743182,38.4336277 128.912647,38.0662456 129.202381,37.8073854 C129.492114,37.5485251 129.876191,37.4213496 130.263158,37.4561404 C130.866242,37.4359719 131.452504,37.6569475 131.892231,38.0701754 L131.591479,38.4962406 C131.229757,38.1519587 130.749996,37.9591573 130.250627,37.9573935 C129.636591,37.9573935 129.260652,38.3082707 129.260652,38.7719298 C129.260652,39.235589 129.536341,39.5112782 130.56391,39.7368421 L130.56391,39.7368421 Z" id="path234"></path>
                <polygon id="path236" points="135.902256 42.4937343 135.363409 42.4937343 135.363409 38.0451128 133.809524 38.0451128 133.809524 37.5313283 137.468672 37.5313283 137.468672 38.0451128 135.902256 38.0451128"></polygon>
                <polygon id="path238" points="138.759398 42.4937343 138.759398 41.7418546 139.373434 41.7418546 139.373434 42.4937343"></polygon>
                <polygon id="path240" points="145.200501 37.4937343 145.576441 37.4937343 145.576441 42.5062657 145.062657 42.5062657 145.062657 38.0701754 144.185464 38.358396 144.06015 37.9072682"></polygon>
                <path d="M149.423559,42.5689223 C148.433584,42.5689223 147.669173,41.9924812 147.669173,41.1528822 C147.675869,40.5669052 148.06928,40.0559819 148.634085,39.8997494 C148.156293,39.7154323 147.83873,39.2589358 147.83208,38.7468672 C147.969495,37.9756052 148.640151,37.4138774 149.423559,37.4138774 C150.206967,37.4138774 150.877623,37.9756052 151.015038,38.7468672 C151.008388,39.2589358 150.690825,39.7154323 150.213033,39.8997494 C150.790937,40.036105 151.193813,40.5593214 151.177945,41.1528822 C151.140405,41.5763901 150.932323,41.9664448 150.601478,42.2334839 C150.270634,42.500523 149.845451,42.621603 149.423559,42.5689223 Z M149.423559,40.1879699 C148.746867,40.1879699 148.170426,40.5764411 148.170426,41.1403509 C148.170426,41.7042607 148.621554,42.0676692 149.423559,42.0676692 C150.225564,42.0676692 150.676692,41.641604 150.676692,41.1403509 C150.676692,40.6390977 150.100251,40.2130326 149.423559,40.2130326 L149.423559,40.1879699 Z M149.423559,37.9448622 C149.166699,37.913287 148.908049,37.9876012 148.707123,38.1507057 C148.506197,38.3138101 148.380299,38.5516586 148.358396,38.8095238 C148.439277,39.3352585 148.891639,39.7233497 149.423559,39.7233497 C149.955479,39.7233497 150.407841,39.3352585 150.488722,38.8095238 C150.466819,38.5516586 150.340921,38.3138101 150.139995,38.1507057 C149.939069,37.9876012 149.680419,37.913287 149.423559,37.9448622 L149.423559,37.9448622 Z" id="path242"></path>
                <path d="M154.699248,42.5689223 C153.709273,42.5689223 152.944862,41.9924812 152.944862,41.1528822 C152.949949,40.570412 153.337402,40.060606 153.897243,39.8997494 C153.424373,39.7114464 153.112375,39.2558295 153.107769,38.7468672 C153.245184,37.9756052 153.91584,37.4138774 154.699248,37.4138774 C155.482656,37.4138774 156.153312,37.9756052 156.290727,38.7468672 C156.284077,39.2589358 155.966514,39.7154323 155.488722,39.8997494 C156.048563,40.060606 156.436016,40.570412 156.441103,41.1528822 C156.406788,41.5753371 156.201394,41.9654417 155.872514,42.2328051 C155.543633,42.5001685 155.11981,42.6215854 154.699248,42.5689223 L154.699248,42.5689223 Z M154.699248,40.1879699 C154.022556,40.1879699 153.446115,40.5764411 153.446115,41.1403509 C153.446115,41.7042607 153.909774,42.0676692 154.699248,42.0676692 C155.488722,42.0676692 155.952381,41.641604 155.952381,41.1403509 C155.952381,40.6390977 155.426065,40.2130326 154.699248,40.2130326 L154.699248,40.1879699 Z M154.699248,37.8065088 C154.442388,37.7776411 154.183738,37.8455832 153.982812,37.9947022 C153.781887,38.1438211 153.655988,38.3612751 153.634085,38.5970296 C153.538531,39.0101412 153.738058,39.4334745 154.132119,39.6536962 C154.526179,39.8739178 155.029258,39.8432376 155.387835,39.5771165 C155.746412,39.3109953 155.882672,38.8671841 155.727949,38.4693355 C155.573227,38.071487 155.161097,37.8059381 154.699248,37.8065088 Z" id="path244"></path>
                <path d="M160.062657,42.5689223 C159.072682,42.5689223 158.308271,41.9924812 158.308271,41.1528822 C158.314966,40.5669052 158.708377,40.0559819 159.273183,39.8997494 C158.79539,39.7154323 158.477828,39.2589358 158.471178,38.7468672 C158.608593,37.9756052 159.279249,37.4138774 160.062657,37.4138774 C160.846064,37.4138774 161.516721,37.9756052 161.654135,38.7468672 C161.64953,39.2558295 161.337531,39.7114464 160.864662,39.8997494 C161.424503,40.060606 161.811956,40.570412 161.817043,41.1528822 C161.779503,41.5763901 161.571421,41.9664448 161.240576,42.2334839 C160.909731,42.500523 160.484549,42.621603 160.062657,42.5689223 L160.062657,42.5689223 Z M160.062657,40.1879699 C159.385965,40.1879699 158.809524,40.5764411 158.809524,41.1403509 C158.809524,41.7042607 159.260652,42.0676692 160.062657,42.0676692 C160.864662,42.0676692 161.315789,41.641604 161.315789,41.1403509 C161.315789,40.6390977 160.739348,40.2130326 160.062657,40.2130326 L160.062657,40.1879699 Z M160.062657,37.9448622 C159.805796,37.913287 159.547147,37.9876012 159.346221,38.1507057 C159.145295,38.3138101 159.019397,38.5516586 158.997494,38.8095238 C159.078375,39.3352585 159.530737,39.7233497 160.062657,39.7233497 C160.594576,39.7233497 161.046939,39.3352585 161.12782,38.8095238 C161.105917,38.5516586 160.980018,38.3138101 160.779093,38.1507057 C160.578167,37.9876012 160.319517,37.913287 160.062657,37.9448622 L160.062657,37.9448622 Z" id="path246"></path>
                <path d="M93.6466165,12.8822055 L86.566416,12.8822055 C86.7963302,15.7206282 86.8674519,18.5696811 86.7794486,21.4160401 C86.7794486,28.7343358 86.566416,30.4887218 86.566416,30.4887218 L89.3984962,30.4887218 C89.3984962,30.4887218 89.3107769,29.6491228 89.3107769,26.5413534 C89.3107769,23.433584 89.4110276,22.5062657 89.4110276,22.5062657 C90.2506266,22.5062657 91.0651629,22.5814536 92.0300752,22.5814536 C95.1378446,22.5814536 100.639098,21.7418546 100.639098,17.2556391 C100.639098,12.9699248 95.5889724,12.8822055 93.6466165,12.8822055 Z M91.716792,21.6541353 C90.9429323,21.6388294 90.171686,21.5591899 89.4110276,21.4160401 L89.4110276,13.8972431 L92.3308271,13.8972431 C95.6390977,13.8972431 97.7568922,14.5112782 97.7568922,17.406015 C97.7568922,20.802005 94.3609023,21.60401 91.716792,21.60401 L91.716792,21.6541353 Z" id="path248"></path>
                <path d="M116.654135,30.4385965 L119.924812,30.4385965 C118.196455,27.608597 116.635709,24.6795828 115.250627,21.6666667 C111.491228,14.2230576 110.964912,12.8947368 110.964912,12.8947368 L110.300752,12.8947368 L100.989975,30.4385965 L103.02005,30.4385965 L106.253133,23.8220551 L113.508772,23.8220551 L116.654135,30.4385965 Z M106.829574,22.6691729 L109.937343,16.4035088 L112.944862,22.6691729 L106.829574,22.6691729 Z" id="path250"></path>
                <path d="M130.889724,21.8671679 C133.195489,21.5789474 137.017544,20.2506266 137.030075,16.9799499 C137.030075,13.9223058 134.110276,12.9323308 130.701754,12.9323308 L123.77193,12.9323308 C124.000629,15.7540731 124.07175,18.5863757 123.984962,21.4160401 C123.984962,28.7218045 123.77193,30.4761905 123.77193,30.4761905 L123.77193,30.4761905 L123.77193,30.4761905 L126.578947,30.4761905 L126.578947,30.4761905 L126.578947,30.4761905 L126.578947,29.1353383 L126.578947,22.0426065 L127.669173,22.0426065 C130.175439,24.7117794 134.072682,28.8721805 135.463659,30.4385965 L139.223058,30.4385965 L139.135338,30.3634085 C137.418546,28.8220551 132.493734,23.4837093 130.889724,21.8671679 L130.889724,21.8671679 Z M126.578947,20.952381 L126.578947,19.5363409 C126.578947,17.7318296 126.578947,15.8646617 126.578947,14.0100251 C127.318296,14.0100251 128.258145,14.0100251 129.62406,14.0100251 C131.654135,14.0100251 134.24812,14.6741855 134.24812,17.3057644 C134.24812,20.2631579 130.989975,21.0651629 128.533835,21.0651629 C127.896999,21.0747071 127.260332,21.0370098 126.629073,20.952381 L126.578947,20.952381 Z" id="path252"></path>
                <path d="M190.689223,21.7919799 C193.007519,21.5037594 196.829574,20.1754386 196.829574,16.9047619 C196.829574,13.8471178 193.909774,12.8571429 190.501253,12.8571429 L183.521303,12.8571429 C183.750002,15.6788851 183.821124,18.5111878 183.734336,21.3408521 C183.734336,28.6591479 183.521303,30.4010025 183.521303,30.4010025 L183.521303,30.4010025 L183.521303,30.4010025 L186.340852,30.4010025 L186.340852,30.4010025 L186.340852,30.4010025 L186.340852,21.9674185 L187.418546,21.9674185 C189.924812,24.6365915 193.834586,28.7969925 195.225564,30.3634085 L198.984962,30.3634085 L198.897243,30.2882206 C197.180451,28.7468672 192.293233,23.4085213 190.689223,21.7919799 L190.689223,21.7919799 Z M186.390977,20.877193 L186.390977,19.4611529 C186.390977,17.6566416 186.390977,15.7894737 186.390977,13.9348371 C187.142857,13.9348371 188.070175,13.8721805 189.43609,13.8721805 C191.478697,13.8721805 194.072682,14.5363409 194.072682,17.1553885 C194.072682,20.1253133 190.814536,20.9899749 188.358396,20.9899749 C187.700568,21.0089106 187.042332,20.9711773 186.390977,20.877193 L186.390977,20.877193 Z" id="path254"></path>
                <path d="M177.54386,29.1478697 L169.398496,29.1478697 L169.398496,21.6290727 L176.704261,21.6290727 L176.704261,20.3759398 L169.423559,20.3759398 C169.423559,19.7243108 169.423559,18.5338346 169.423559,17.2431078 C169.423559,15.952381 169.498747,15.1378446 169.536341,14.0726817 L177.468672,14.0726817 L177.468672,12.8195489 L166.629073,12.8195489 L166.629073,30.3634085 L177.631579,30.3634085 L177.631579,29.1102757 L177.54386,29.1478697 Z" id="path256"></path>
                <polygon id="polygon258" points="151.22807 20.5388471 160.538847 12.8947368 158.120301 12.8947368 148.458647 21.1654135 157.669173 30.4385965 161.340852 30.4385965"></polygon>
                <path d="M144.874687,12.8571429 L144.874687,12.8571429 C145.103386,15.6788851 145.174507,18.5111878 145.087719,21.3408521 C145.087719,28.6591479 144.874687,30.4010025 144.874687,30.4010025 L144.874687,30.4010025 L144.874687,30.4010025 L147.932331,30.4010025 L147.932331,12.8571429 L147.932331,12.8571429 L147.932331,12.8571429 L144.874687,12.8571429 Z" id="path260"></path>
                <path d="M35.9273183,37.0300752 L34.1353383,39.122807 C34.1353383,39.5238095 34.1353383,39.9122807 34.1353383,40.3007519 L35.9774436,38.1578947 L35.9273183,37.0300752 Z" id="path262"></path>
                <path d="M35.9273183,38.7218045 L34.0601504,40.8897243 C34.0601504,41.3157895 34.0601504,41.6917293 34.0601504,42.0676692 L35.9649123,39.8496241 L35.9273183,38.7218045 Z" id="path264"></path>
                <path d="M35.952381,35.4135338 L34.2105263,37.4310777 C34.2105263,37.7944862 34.2105263,38.1578947 34.2105263,38.5213033 L35.9398496,36.4536341 L35.952381,35.4135338 Z" id="path266"></path>
                <path d="M38.4711779,44.5614035 L38.4711779,44.5614035 L36.2155388,41.9423559 L33.9473684,44.5614035 L33.9473684,44.5614035 C33.9473684,44.8370927 34.160401,45 34.5989975,45 L37.8195489,45 C38.2581454,45 38.4711779,44.8370927 38.4711779,44.5614035 Z" id="path268"></path>
                <path d="M33.9598997,43.8095238 L35.914787,41.5413534 L35.914787,40.4135338 L33.9849624,42.6441103 C33.9724311,43.0827068 33.9598997,43.4711779 33.9598997,43.8095238 Z" id="path270"></path>
                <path d="M35.9649123,32.0551378 L34.3984962,33.9473684 C34.3984962,34.2857143 34.3984962,34.6365915 34.3984962,35.0125313 L36.0401003,33.0952381 L35.9649123,32.0551378 Z" id="path272"></path>
                <path d="M35.9649123,33.7468672 L34.2857143,35.6892231 C34.2857143,36.0401003 34.2857143,36.4035088 34.2857143,36.754386 L36.0025063,34.7744361 L35.9649123,33.7468672 Z" id="path274"></path>
                <path d="M38.0576441,33.9473684 L36.4285714,32.0676692 L36.4285714,33.0827068 L38.1578947,35 C38.0827068,34.6240602 38.0701754,34.273183 38.0576441,33.9473684 Z" id="path276"></path>
                <path d="M38.3709273,40.9022556 L36.4912281,38.7218045 L36.4912281,39.8496241 L38.4085213,42.0676692 C38.4001671,41.6666667 38.3876358,41.2781955 38.3709273,40.9022556 Z" id="path278"></path>
                <path d="M38.1578947,35.7017544 L36.4786967,33.7468672 L36.4786967,34.7619048 L38.1578947,36.754386 C38.1578947,36.4536341 38.1578947,36.0401003 38.1578947,35.7017544 Z" id="path280"></path>
                <path d="M38.4586466,43.8220551 C38.4586466,43.4962406 38.4586466,43.0827068 38.4586466,42.6566416 L36.5288221,40.4135338 L36.5288221,41.5413534 L38.4586466,43.8220551 Z" id="path282"></path>
                <path d="M38.3458647,40.3007519 C38.3458647,39.924812 38.3458647,39.5363409 38.3458647,39.1353383 L36.5288221,37.0300752 L36.5288221,38.1578947 L38.3458647,40.3007519 Z" id="path284"></path>
                <polygon id="path286" points="38.2581454 38.5338346 38.2581454 37.4310777 36.5037594 35.4135338 36.5037594 36.4536341"></polygon>
                <path d="M34.3984962,33.2205514 L34.3984962,33.2205514 L35.9774436,31.4411028 L36.1779449,2.26817043 L36.1779449,2.26817043 L36.4285714,31.4411028 L38.0325815,33.283208 L38.0325815,33.283208 C57.4561404,32.9824561 72.4185464,27.9824561 72.4185464,21.6666667 C72.4185464,15.3508772 56.9548872,10.1378446 36.9047619,9.96240602 L36.9047619,9.96240602 C36.9047619,8.24561404 36.9047619,7.11779449 36.9047619,7.11779449 C36.9047619,7.11779449 37.6566416,6.76691729 37.7067669,6.16541353 C37.5516451,4.44778809 37.2540461,2.74602511 36.8170426,1.07769424 C36.5162907,0.137844612 36.4160401,0 36.2280702,0 C36.0401003,0 35.9273183,0.137844612 35.6390977,1.07769424 C35.1924022,2.74445548 34.8905281,4.44668999 34.7368421,6.16541353 C34.7368421,6.76691729 35.5388471,7.11779449 35.5388471,7.11779449 C35.5388471,7.11779449 35.5388471,8.24561404 35.5388471,9.96240602 L35.5388471,9.96240602 C15.5263158,10.1378446 0,15.1503759 0,21.60401 C0,28.0576441 14.962406,32.9197995 34.3984962,33.2205514 Z M36.9047619,11.0776942 C55.5889724,11.2155388 69.924812,15.9649123 69.924812,21.60401 C69.924812,27.2431078 56.1403509,31.8045113 37.9323308,32.0927318 L37.9323308,32.0927318 C37.9323308,31.5288221 37.9323308,31.1027569 37.9323308,30.839599 C37.8096364,29.2442346 37.5878212,27.6580472 37.2681704,26.0902256 C37.1428571,24.7619048 37.0050125,16.2531328 36.9298246,11.0526316 L36.9298246,11.0526316 L36.9047619,11.0776942 Z M35.4135338,11.0776942 L35.4135338,11.0776942 C35.3383459,16.2280702 35.2130326,24.7493734 35.075188,26.1152882 C34.7656511,27.6843681 34.5480706,29.2701957 34.4235589,30.8646617 C34.4235589,31.1027569 34.4235589,31.5288221 34.4235589,32.1177945 L34.4235589,32.1177945 C16.1904762,31.8295739 2.43107769,27.1052632 2.43107769,21.6290727 C2.43107769,16.1528822 16.7794486,11.2155388 35.4636591,11.0776942 L35.4135338,11.0776942 Z" id="path288"></path>
            </g>
        </g>
    </g>
</svg>